<svg version="1.1" id="Layer_1" xmlns="http://www.w3.org/2000/svg" xmlns:xlink="http://www.w3.org/1999/xlink" x="0px" y="0px"
	 width="100%" viewBox="0 0 597 605" enable-background="new 0 0 597 605" xml:space="preserve">
<path fill="#FFFFFF" opacity="1.000000" stroke="none" 
	d="
M1.000000,214.000000 
	C1.000000,142.666687 1.000000,71.833374 1.000000,1.000047 
	C199.999924,1.000032 398.999847,1.000032 597.999817,1.000016 
	C597.999878,202.666519 597.999878,404.333038 597.999939,605.999634 
	C399.000214,605.999756 200.000397,605.999756 1.000300,605.999878 
	C1.000000,475.500000 1.000000,345.000000 1.000000,214.000000 
M465.080078,466.339478 
	C468.961792,470.634735 472.510345,475.298981 476.785492,479.158447 
	C491.764008,492.680542 509.140442,498.158630 529.126404,493.406830 
	C544.724121,489.698364 557.037476,481.011749 567.059021,468.546326 
	C583.319885,448.320068 590.515137,424.925842 591.933777,399.465240 
	C592.361938,391.780670 592.267700,384.040161 591.926392,376.346863 
	C591.569153,368.294281 591.317566,360.135895 589.814148,352.253723 
	C584.731262,325.604279 576.864624,299.864319 562.761841,276.390289 
	C550.501892,255.983612 535.320557,238.233002 515.866821,224.275665 
	C514.453430,223.261627 513.075195,220.961990 513.148438,219.325821 
	C513.472046,212.102798 514.979126,204.894012 514.869202,197.698212 
	C514.619080,181.319901 514.048279,164.925735 512.901428,148.587601 
	C511.720398,131.763016 506.692261,115.783813 499.207916,100.756706 
	C490.921570,84.119354 479.787048,69.654770 465.337708,57.607922 
	C453.885834,48.060169 441.553955,40.046894 428.188904,33.769043 
	C405.296814,23.016119 381.263000,15.812538 356.210114,11.857176 
	C335.345978,8.563131 314.496094,5.909379 293.344757,8.019164 
	C277.824097,9.567307 262.225464,10.700965 246.838364,13.136307 
	C222.344727,17.012957 198.939377,24.956024 176.473694,35.320305 
	C150.737869,47.193233 126.356102,61.496735 105.628784,81.062378 
	C92.407600,93.542572 79.198853,106.262070 67.689400,120.274590 
	C51.848404,139.560684 39.531898,161.245071 30.108690,184.510147 
	C16.849152,217.246780 10.454935,251.369904 9.100072,286.500031 
	C8.762806,295.244995 9.347193,304.064209 10.074206,312.802155 
	C11.094845,325.069183 12.311120,337.339569 14.039508,349.523956 
	C17.424255,373.385040 24.010273,396.467957 32.124104,419.116547 
	C33.958721,424.237579 36.384495,429.146881 38.837563,434.849701 
	C42.625954,430.112823 45.786510,426.156921 48.951416,422.204498 
	C59.212513,409.390106 68.722519,395.869751 79.928841,383.943390 
	C93.772583,369.210175 108.541855,355.243408 123.817917,341.990570 
	C137.041031,330.518799 151.217743,320.063751 165.533722,309.953339 
	C187.106155,294.718109 209.854965,281.328552 234.022430,270.582764 
	C249.854736,263.543091 265.747009,256.509460 282.040802,250.668091 
	C303.894257,242.833588 326.321808,236.895569 349.465851,233.906586 
	C367.930450,231.521957 386.252747,229.229874 405.044556,230.748856 
	C420.504242,231.998489 435.672791,234.121887 450.531097,238.343307 
	C456.564270,240.057419 462.338989,242.681198 468.039093,244.818954 
	C466.891449,250.082336 465.902283,254.369003 465.026154,258.678650 
	C460.209564,282.371185 455.066223,306.004944 450.747162,329.788208 
	C447.880981,345.570923 445.453217,361.511963 444.218933,377.489471 
	C443.049652,392.625366 443.613007,407.914307 447.020844,422.882721 
	C450.499451,438.162048 455.729309,452.728760 465.080078,466.339478 
M179.033752,575.529846 
	C265.506714,616.306824 369.996521,597.888611 422.177612,564.971008 
	C397.470306,529.006653 377.310730,491.065857 367.790894,447.862488 
	C358.195557,404.316681 363.107117,361.433929 371.188690,318.069580 
	C369.073730,318.069580 367.539764,317.780518 366.155884,318.114044 
	C351.572388,321.628937 336.811554,324.585022 322.488068,328.965454 
	C291.654785,338.394897 262.852875,352.406433 235.136520,368.872284 
	C205.324005,386.583527 177.863342,407.361786 153.193741,431.597198 
	C138.475006,446.056824 124.900612,461.725311 111.369904,477.334137 
	C102.927742,487.072906 95.525566,497.713165 87.720627,507.865692 
	C111.278290,533.457214 141.950989,558.470154 179.033752,575.529846 
z"/>
<path fill="#30C1D5" opacity="1.000000" stroke="none" 
	d="
M464.995209,465.985474 
	C455.729309,452.728760 450.499451,438.162048 447.020844,422.882721 
	C443.613007,407.914307 443.049652,392.625366 444.218933,377.489471 
	C445.453217,361.511963 447.880981,345.570923 450.747162,329.788208 
	C455.066223,306.004944 460.209564,282.371185 465.026154,258.678650 
	C465.902283,254.369003 466.891449,250.082336 468.039093,244.818954 
	C462.338989,242.681198 456.564270,240.057419 450.531097,238.343307 
	C435.672791,234.121887 420.504242,231.998489 405.044556,230.748856 
	C386.252747,229.229874 367.930450,231.521957 349.465851,233.906586 
	C326.321808,236.895569 303.894257,242.833588 282.040802,250.668091 
	C265.747009,256.509460 249.854736,263.543091 234.022430,270.582764 
	C209.854965,281.328552 187.106155,294.718109 165.533722,309.953339 
	C151.217743,320.063751 137.041031,330.518799 123.817917,341.990570 
	C108.541855,355.243408 93.772583,369.210175 79.928841,383.943390 
	C68.722519,395.869751 59.212513,409.390106 48.951416,422.204498 
	C45.786510,426.156921 42.625954,430.112823 38.837563,434.849701 
	C36.384495,429.146881 33.958721,424.237579 32.124104,419.116547 
	C24.010273,396.467957 17.424255,373.385040 14.039508,349.523956 
	C12.311120,337.339569 11.094845,325.069183 10.074206,312.802155 
	C9.347193,304.064209 8.762806,295.244995 9.100072,286.500031 
	C10.454935,251.369904 16.849152,217.246780 30.108690,184.510147 
	C39.531898,161.245071 51.848404,139.560684 67.689400,120.274590 
	C79.198853,106.262070 92.407600,93.542572 105.628784,81.062378 
	C126.356102,61.496735 150.737869,47.193233 176.473694,35.320305 
	C198.939377,24.956024 222.344727,17.012957 246.838364,13.136307 
	C262.225464,10.700965 277.824097,9.567307 293.344757,8.019164 
	C314.496094,5.909379 335.345978,8.563131 356.210114,11.857176 
	C381.263000,15.812538 405.296814,23.016119 428.188904,33.769043 
	C441.553955,40.046894 453.885834,48.060169 465.337708,57.607922 
	C479.787048,69.654770 490.921570,84.119354 499.207916,100.756706 
	C506.692261,115.783813 511.720398,131.763016 512.901428,148.587601 
	C514.048279,164.925735 514.619080,181.319901 514.869202,197.698212 
	C514.979126,204.894012 513.472046,212.102798 513.148438,219.325821 
	C513.075195,220.961990 514.453430,223.261627 515.866821,224.275665 
	C535.320557,238.233002 550.501892,255.983612 562.761841,276.390289 
	C576.864624,299.864319 584.731262,325.604279 589.814148,352.253723 
	C591.317566,360.135895 591.569153,368.294281 591.926392,376.346863 
	C592.267700,384.040161 592.361938,391.780670 591.933777,399.465240 
	C590.515137,424.925842 583.319885,448.320068 567.059021,468.546326 
	C557.037476,481.011749 544.724121,489.698364 529.126404,493.406830 
	C509.140442,498.158630 491.764008,492.680542 476.785492,479.158447 
	C472.510345,475.298981 468.961792,470.634735 464.995209,465.985474 
M197.390167,241.908890 
	C219.843033,229.953262 243.068939,219.660675 267.158081,211.590134 
	C283.849213,205.998123 300.886475,201.257843 318.026215,197.231735 
	C339.964752,192.078415 362.316711,189.166397 384.911926,189.065201 
	C395.512512,189.017731 406.130646,189.432297 416.713348,190.083832 
	C423.570496,190.506012 430.476166,191.274185 437.186127,192.703903 
	C449.288910,195.282684 461.261261,198.473724 473.757812,201.523682 
	C474.061157,200.648804 474.829437,199.330826 474.939117,197.960144 
	C475.399994,192.199982 475.917175,186.424469 475.926605,180.653778 
	C475.935486,175.217468 475.782532,169.706573 474.906433,164.358627 
	C473.087036,153.252884 471.980682,141.809006 468.369141,131.261566 
	C459.225586,104.558083 440.158905,86.287361 415.329285,73.774529 
	C402.316742,67.216896 388.608337,62.603687 374.564240,58.519402 
	C354.043213,52.551487 333.199951,49.849567 312.026306,49.065216 
	C292.847198,48.354752 273.801147,50.379753 255.021469,54.102028 
	C233.817627,58.304787 213.197571,64.605736 193.559692,73.807556 
	C174.341599,82.812668 156.198578,93.484650 139.446564,106.678612 
	C124.946365,118.099007 111.842255,130.848557 100.508118,145.263458 
	C87.116333,162.295334 76.053932,180.812469 67.932175,201.045166 
	C56.822971,228.720139 50.511375,257.400085 50.151173,287.178009 
	C49.963341,302.705597 51.191387,318.260773 52.094364,333.785187 
	C52.389984,338.867706 53.677006,343.892578 54.557323,349.226624 
	C55.471672,348.661102 55.938316,348.466949 56.285374,348.144226 
	C71.081459,334.384766 85.489510,320.176605 100.774307,306.984131 
	C112.789589,296.613586 125.406387,286.774261 138.616150,277.992920 
	C157.553391,265.404175 177.273773,253.993439 197.390167,241.908890 
M523.917358,291.653046 
	C517.877197,284.205688 511.837006,276.758331 505.796814,269.310974 
	C501.631531,283.089569 498.452393,295.889496 496.099121,308.839508 
	C492.415985,329.107971 489.162537,349.457764 485.972717,369.811615 
	C483.617188,384.841888 483.863647,399.895416 487.085175,414.802826 
	C489.492767,425.943817 493.888947,436.414062 501.007690,445.247467 
	C508.760284,454.867432 520.257507,456.482544 530.738037,446.745667 
	C546.002380,432.564423 550.425903,413.837036 551.887146,394.213287 
	C553.193298,376.672394 550.544922,359.395813 545.947510,342.456604 
	C541.127563,324.697296 534.687073,307.615692 523.917358,291.653046 
z"/>
<path fill="#30C1D5" opacity="1.000000" stroke="none" 
	d="
M178.718002,575.313110 
	C141.950989,558.470154 111.278290,533.457214 87.720627,507.865692 
	C95.525566,497.713165 102.927742,487.072906 111.369904,477.334137 
	C124.900612,461.725311 138.475006,446.056824 153.193741,431.597198 
	C177.863342,407.361786 205.324005,386.583527 235.136520,368.872284 
	C262.852875,352.406433 291.654785,338.394897 322.488068,328.965454 
	C336.811554,324.585022 351.572388,321.628937 366.155884,318.114044 
	C367.539764,317.780518 369.073730,318.069580 371.188690,318.069580 
	C363.107117,361.433929 358.195557,404.316681 367.790894,447.862488 
	C377.310730,491.065857 397.470306,529.006653 422.177612,564.971008 
	C369.996521,597.888611 265.506714,616.306824 178.718002,575.313110 
M198.060486,445.471283 
	C179.139740,464.463959 160.218994,483.456635 140.970306,502.778503 
	C178.847733,535.527527 221.302399,554.598999 269.740570,558.586731 
	C301.339020,561.188110 332.738403,558.332886 363.084839,547.347473 
	C332.260101,492.006165 317.920441,433.297760 323.064178,369.344849 
	C315.648438,372.378754 309.148285,374.979889 302.693390,377.688965 
	C275.928406,388.922058 251.538818,404.261810 228.252914,421.380920 
	C218.079514,428.860077 208.506287,437.155609 198.060486,445.471283 
z"/>
<path fill="#FFFFFF" opacity="1.000000" stroke="none" 
	d="
M197.024994,241.994324 
	C177.273773,253.993439 157.553391,265.404175 138.616150,277.992920 
	C125.406387,286.774261 112.789589,296.613586 100.774307,306.984131 
	C85.489510,320.176605 71.081459,334.384766 56.285374,348.144226 
	C55.938316,348.466949 55.471672,348.661102 54.557323,349.226624 
	C53.677006,343.892578 52.389984,338.867706 52.094364,333.785187 
	C51.191387,318.260773 49.963341,302.705597 50.151173,287.178009 
	C50.511375,257.400085 56.822971,228.720139 67.932175,201.045166 
	C76.053932,180.812469 87.116333,162.295334 100.508118,145.263458 
	C111.842255,130.848557 124.946365,118.099007 139.446564,106.678612 
	C156.198578,93.484650 174.341599,82.812668 193.559692,73.807556 
	C213.197571,64.605736 233.817627,58.304787 255.021469,54.102028 
	C273.801147,50.379753 292.847198,48.354752 312.026306,49.065216 
	C333.199951,49.849567 354.043213,52.551487 374.564240,58.519402 
	C388.608337,62.603687 402.316742,67.216896 415.329285,73.774529 
	C440.158905,86.287361 459.225586,104.558083 468.369141,131.261566 
	C471.980682,141.809006 473.087036,153.252884 474.906433,164.358627 
	C475.782532,169.706573 475.935486,175.217468 475.926605,180.653778 
	C475.917175,186.424469 475.399994,192.199982 474.939117,197.960144 
	C474.829437,199.330826 474.061157,200.648804 473.757812,201.523682 
	C461.261261,198.473724 449.288910,195.282684 437.186127,192.703903 
	C430.476166,191.274185 423.570496,190.506012 416.713348,190.083832 
	C406.130646,189.432297 395.512512,189.017731 384.911926,189.065201 
	C362.316711,189.166397 339.964752,192.078415 318.026215,197.231735 
	C300.886475,201.257843 283.849213,205.998123 267.158081,211.590134 
	C243.068939,219.660675 219.843033,229.953262 197.024994,241.994324 
z"/>
<path fill="#FFFFFF" opacity="1.000000" stroke="none" 
	d="
M524.002869,292.008545 
	C534.687073,307.615692 541.127563,324.697296 545.947510,342.456604 
	C550.544922,359.395813 553.193298,376.672394 551.887146,394.213287 
	C550.425903,413.837036 546.002380,432.564423 530.738037,446.745667 
	C520.257507,456.482544 508.760284,454.867432 501.007690,445.247467 
	C493.888947,436.414062 489.492767,425.943817 487.085175,414.802826 
	C483.863647,399.895416 483.617188,384.841888 485.972717,369.811615 
	C489.162537,349.457764 492.415985,329.107971 496.099121,308.839508 
	C498.452393,295.889496 501.631531,283.089569 505.796814,269.310974 
	C511.837006,276.758331 517.877197,284.205688 524.002869,292.008545 
z"/>
<path fill="#FFFFFF" opacity="1.000000" stroke="none" 
	d="
M198.360504,445.275848 
	C208.506287,437.155609 218.079514,428.860077 228.252914,421.380920 
	C251.538818,404.261810 275.928406,388.922058 302.693390,377.688965 
	C309.148285,374.979889 315.648438,372.378754 323.064178,369.344849 
	C317.920441,433.297760 332.260101,492.006165 363.084839,547.347473 
	C332.738403,558.332886 301.339020,561.188110 269.740570,558.586731 
	C221.302399,554.598999 178.847733,535.527527 140.970306,502.778503 
	C160.218994,483.456635 179.139740,464.463959 198.360504,445.275848 
z"/>
</svg>